<svg width="20" height="20" fill="none" xmlns="http://www.w3.org/2000/svg"><path fill-rule="evenodd" clip-rule="evenodd" d="M18.285 6.866a6.256 6.256 0 0 0-.4-2.083 4.632 4.632 0 0 0-2.667-2.667 6.259 6.259 0 0 0-2.083-.4c-.809-.05-1.075-.05-3.134-.05-2.058 0-2.325 0-3.133.05a6.258 6.258 0 0 0-2.083.4 4.633 4.633 0 0 0-2.667 2.667 6.258 6.258 0 0 0-.4 2.083c-.05.817-.05 1.083-.05 3.133s0 2.317.05 3.134c.014.712.15 1.416.4 2.083a4.633 4.633 0 0 0 2.667 2.667c.666.25 1.37.386 2.083.4.324 0 .559.007.845.016.45.015 1.03.034 2.288.034 2.059 0 2.325 0 3.134-.05a6.26 6.26 0 0 0 2.083-.4 4.634 4.634 0 0 0 2.667-2.667 6.256 6.256 0 0 0 .4-2.083c0-.325.007-.56.017-.85.014-.451.033-1.032.033-2.284 0-2.05 0-2.316-.05-3.133Zm-1.959 7.742a5 5 0 0 0 .292-1.55h.05c0-.31.006-.535.014-.812.012-.44.028-1.01.028-2.247 0-1.227-.016-1.785-.028-2.221-.008-.28-.014-.51-.014-.837a4.783 4.783 0 0 0-.342-1.592 2.716 2.716 0 0 0-.675-1.041 2.75 2.75 0 0 0-1.033-.675 4.892 4.892 0 0 0-1.567-.3h-3.05c-2.025 0-2.266 0-3.05.083a4.792 4.792 0 0 0-1.558.3 2.716 2.716 0 0 0-1.042.675 2.75 2.75 0 0 0-.675 1.033 4.883 4.883 0 0 0-.3 1.559v6.116c.014.53.115 1.054.3 1.55.142.395.373.752.675 1.042.293.302.648.536 1.042.683.5.18 1.027.278 1.558.292h3.042c1.248 0 1.82-.016 2.257-.028l.1-.003c.228-.006.43-.01.693-.01a4.79 4.79 0 0 0 1.558-.3 2.716 2.716 0 0 0 1.042-.676c.302-.292.536-.648.683-1.041Z" fill="#fff"/><path fill-rule="evenodd" clip-rule="evenodd" d="M10.001 5.833a4.167 4.167 0 1 0 0 8.333 4.167 4.167 0 0 0 0-8.333Zm-1.389 6.245a2.5 2.5 0 1 0 2.778-4.157 2.5 2.5 0 0 0-2.778 4.157Z" fill="#fff"/><path d="M14.168 5a.833.833 0 1 0 0 1.666.833.833 0 0 0 0-1.667Z" fill="#fff"/></svg>