<svg width="155" height="40" fill="none" xmlns="http://www.w3.org/2000/svg"><path d="M81.92 32.1c-.488 0-.88-.148-1.177-.446-.298-.297-.446-.7-.446-1.21V11.085c0-.488.138-.87.414-1.146.297-.297.7-.446 1.21-.446h7.67c2.377 0 4.223.584 5.539 1.751 1.316 1.168 1.973 2.824 1.973 4.968 0 2.122-.657 3.778-1.973 4.967-1.316 1.189-3.162 1.783-5.539 1.783h-6.016v7.482c0 .51-.148.913-.445 1.21-.276.298-.68.446-1.21.446Zm7.321-11.78c3.14 0 4.711-1.37 4.711-4.108 0-2.717-1.57-4.076-4.71-4.076h-5.667v8.183h5.666Zm17.658 11.844c-1.528 0-2.875-.33-4.043-.987-1.145-.658-2.037-1.592-2.673-2.802-.616-1.231-.923-2.654-.923-4.267 0-1.634.307-3.057.923-4.267.636-1.23 1.528-2.175 2.673-2.833 1.168-.658 2.515-.987 4.043-.987s2.865.329 4.011.987c1.167.658 2.058 1.602 2.673 2.834.637 1.21.955 2.632.955 4.266 0 1.613-.318 3.036-.955 4.267a6.552 6.552 0 0 1-2.673 2.802c-1.146.658-2.483.987-4.011.987Zm0-2.547c1.422 0 2.504-.467 3.247-1.401.764-.934 1.146-2.304 1.146-4.108 0-1.783-.382-3.142-1.146-4.076-.764-.955-1.846-1.432-3.247-1.432-1.401 0-2.483.477-3.247 1.432-.764.934-1.146 2.293-1.146 4.076 0 1.804.372 3.174 1.114 4.108.764.934 1.857 1.4 3.279 1.4Zm29.012-20.283c.488 0 .881.16 1.178.478.297.297.445.69.445 1.178v19.454c0 .489-.148.892-.445 1.21-.297.298-.69.446-1.178.446s-.881-.148-1.178-.446c-.297-.297-.445-.7-.445-1.21V21.88h-12.542v8.565c0 .489-.148.892-.445 1.21-.297.298-.69.446-1.178.446s-.881-.148-1.178-.446c-.297-.297-.445-.7-.445-1.21V10.99c0-.489.148-.881.445-1.178.297-.319.69-.478 1.178-.478s.881.16 1.178.478c.297.297.445.69.445 1.178v8.215h12.542V10.99c0-.489.148-.881.445-1.178.297-.319.69-.478 1.178-.478Zm12.978 6.686c2.058 0 3.586.52 4.583 1.56 1.019 1.04 1.528 2.622 1.528 4.745v8.247c0 .488-.138.87-.413 1.146-.276.255-.658.382-1.146.382-.467 0-.839-.138-1.114-.414-.276-.276-.414-.647-.414-1.114v-1.178a4.548 4.548 0 0 1-1.815 2.07c-.785.466-1.708.7-2.769.7-1.018 0-1.952-.202-2.801-.605-.849-.425-1.517-1.008-2.005-1.751a4.572 4.572 0 0 1-.701-2.484c0-1.125.287-2.006.86-2.643.594-.658 1.56-1.125 2.896-1.4 1.359-.277 3.215-.415 5.571-.415h.732v-.923c0-1.189-.244-2.049-.732-2.58-.488-.53-1.273-.795-2.356-.795a7.49 7.49 0 0 0-2.1.286 15.77 15.77 0 0 0-2.165.828c-.573.319-.976.478-1.209.478a1.03 1.03 0 0 1-.796-.35c-.191-.234-.287-.531-.287-.892 0-.318.085-.594.255-.828.191-.255.488-.499.891-.732.743-.403 1.613-.722 2.61-.955a11.696 11.696 0 0 1 2.897-.382Zm-.987 13.756c1.167 0 2.122-.393 2.865-1.178.743-.807 1.114-1.836 1.114-3.089v-.828h-.573c-1.655 0-2.928.075-3.82.223-.891.149-1.528.404-1.91.764-.381.34-.572.839-.572 1.497 0 .764.275 1.39.827 1.878.552.489 1.242.733 2.069.733Z" fill="#333"/><path d="M67.737 32.97c-4.188-.748-6.606-1.683-11.108-4.704H13.18c.684-7.414 20.853-6.957 48.139-8.169l-42.954-.742c-1.915-4.199-3.078-5.722-5.185-8.17 1.046-5.554 3.217-6.661 7.653-7.92 2.962-.743 21.11.533 35.795-.743h-14.07C34.95 2.273 25.771.43 23.796.294c-1.974-.138-4.196-.358-5.43 0C17.13.65 11.7 4.502 10.219 9.7c0 0-1.372-.174-2.222 0-.395.081-.987.301-.987.301-2.28 1.494-2.4 2.108-2.963 3.908-2.246.031-3.95 1.29-3.95 2.227v2.228c0 .99 1.482 2.53 3.21 2.723h3.21c1.57 3.141 1.958 5.947 2.22 11.882h1.482v1.238h.988v1.786h-.988v1.185c.74.548.988 1.043.988 2.723h1.974c0-1.68.247-2.175.988-2.723v-1.185h-.988v-1.786h.988V32.97h53.569Z" fill="#0C8627"/><path fill-rule="evenodd" clip-rule="evenodd" d="M20.802.207c-.956-.027-1.806.008-2.407.182-.292.085-.851.384-1.556.876a19.275 19.275 0 0 0-2.383 1.988c-1.69 1.65-3.405 3.898-4.14 6.474l-.023.083-.085-.011h-.003l-.012-.002-.044-.005a12.048 12.048 0 0 0-.725-.058c-.448-.022-.993-.02-1.405.064a6.041 6.041 0 0 0-.63.178c-.099.032-.184.062-.245.083l-.072.026-.015.006c-1.131.741-1.715 1.258-2.088 1.805-.348.51-.516 1.051-.764 1.848l-.06.194-.022.069-.072.001c-1.106.016-2.076.334-2.767.76a3.043 3.043 0 0 0-.805.69c-.186.24-.28.474-.28.678v2.228c0 .224.084.489.245.766.16.277.392.56.679.82.573.521 1.354.942 2.191 1.038H6.58l.028.055c1.573 3.144 1.965 5.955 2.228 11.827h1.485v1.238h.988v1.985h-.988v1.035c.358.27.607.54.765.951.155.404.218.935.222 1.722h1.777c.004-.787.067-1.318.222-1.722.158-.41.408-.68.765-.951v-1.035h-.987v-1.986h.987V32.87h52.61c-3.586-.727-5.969-1.748-10.08-4.504H13.073l.01-.11c.176-1.907 1.607-3.292 4.033-4.316 2.427-1.024 5.877-1.701 10.148-2.184 6.145-.693 14.012-.986 23.02-1.32 2.487-.093 5.06-.189 7.709-.297l-39.691-.686-.026-.057c-1.91-4.189-3.068-5.704-5.17-8.146l-.03-.036.008-.047c.525-2.787 1.335-4.477 2.586-5.626 1.247-1.146 2.92-1.743 5.138-2.373h.003c.38-.096.997-.157 1.805-.196a67.63 67.63 0 0 1 2.996-.057c1.623-.003 3.56.02 5.714.045l3.012.034c5.953.058 13.046.065 19.675-.373H42.556c-3.81-.124-8.01-.648-11.504-1.157a345.33 345.33 0 0 1-3.796-.58l-.778-.121C25.218.567 24.28.427 23.79.393l-.683-.05a53.4 53.4 0 0 0-2.306-.136Zm-13.79 9.794-.035-.093.007-.003.02-.007.073-.026c.062-.022.15-.053.25-.085a5.96 5.96 0 0 1 .652-.184c.438-.09 1.004-.09 1.455-.068a12.229 12.229 0 0 1 .715.057c.76-2.588 2.482-4.835 4.168-6.482a19.484 19.484 0 0 1 2.408-2.008c.707-.494 1.29-.81 1.615-.904.633-.184 1.51-.217 2.468-.19.741.022 1.539.08 2.317.137l.68.05c.5.034 1.448.176 2.703.371l.78.122c1.104.173 2.392.375 3.793.58 3.491.508 7.683 1.03 11.48 1.154h14.07l.008.199c-7.347.638-15.56.638-22.302.571-1.043-.01-2.05-.022-3.014-.033a435.871 435.871 0 0 0-5.71-.045c-1.172.002-2.18.018-2.986.057-.807.038-1.406.1-1.765.19-2.218.63-3.848 1.216-5.056 2.326-1.2 1.102-1.995 2.731-2.517 5.47 2.083 2.421 3.249 3.955 5.143 8.099l42.891.742.003.198c-3.834.17-7.526.308-11.043.439-9.003.334-16.858.626-22.995 1.32-4.268.481-7.694 1.156-10.093 2.169-2.352.992-3.692 2.298-3.902 4.043h43.368l.025.016c4.492 3.014 6.897 3.943 11.07 4.688l-.017.198H14.27v1.237h-.988v1.588h.988v1.334l-.04.03c-.362.267-.593.514-.738.893-.148.384-.21.912-.21 1.75V40H11.11v-.1c0-.837-.062-1.365-.21-1.75-.145-.378-.376-.625-.737-.892l-.04-.03v-1.334h.987v-1.587h-.988v-1.238H8.644l-.004-.095c-.261-5.9-.645-8.689-2.184-11.787H3.298c-.89-.1-1.71-.545-2.309-1.09a3.717 3.717 0 0 1-.717-.867C.1 18.934 0 18.635 0 18.364v-2.228c0-.263.12-.539.322-.8a3.24 3.24 0 0 1 .858-.738c.707-.436 1.685-.759 2.796-.788l.041-.133c.245-.788.422-1.357.787-1.893.397-.582 1.01-1.117 2.153-1.866l.02-.012.035.095Z" fill="#0C8627"/></svg>