<svg width="20" height="20" fill="none" xmlns="http://www.w3.org/2000/svg"><path fill-rule="evenodd" clip-rule="evenodd" d="M10.06 18.217a8.309 8.309 0 0 1-3.982-1.037l-4.41 1.153 1.16-4.288a8.152 8.152 0 0 1-1.16-4.126A8.235 8.235 0 0 1 3.08 5.333a8.321 8.321 0 0 1 3.735-3.038 8.387 8.387 0 0 1 4.805-.471 8.352 8.352 0 0 1 4.262 2.254A8.259 8.259 0 0 1 18.169 8.3a8.222 8.222 0 0 1-.454 4.773 8.288 8.288 0 0 1-3.044 3.722 8.375 8.375 0 0 1-4.612 1.421ZM6.567 4.062a7 7 0 0 1 3.491-.978h-.03c1.847 0 3.25.618 4.556 1.915 1.306 1.297 2.427 3.04 2.427 4.873a6.891 6.891 0 0 1-2.04 4.89 6.988 6.988 0 0 1-4.924 2.026 7.001 7.001 0 0 1-3.482-.957l-.255-.15-2.647.715.697-2.524-.163-.265a6.88 6.88 0 0 1-.153-6.956 6.938 6.938 0 0 1 2.523-2.59Z" fill="#fff"/><path d="M14.503 12.599a2.103 2.103 0 0 1-1.404.98 2.74 2.74 0 0 1-1.3-.081 10.377 10.377 0 0 1-1.16-.438 9.265 9.265 0 0 1-3.552-3.112 3.996 3.996 0 0 1-.847-2.133 2.291 2.291 0 0 1 .73-1.729.754.754 0 0 1 .558-.253h.325c.128 0 .302 0 .464.357.163.357.592 1.43.65 1.533a.39.39 0 0 1 0 .357 1.312 1.312 0 0 1-.209.346c-.104.127-.22.277-.313.369-.093.092-.209.207-.093.415.316.53.707 1.01 1.16 1.43.495.433 1.06.78 1.672 1.025.209.104.337.092.453 0 .116-.092.522-.6.661-.807.14-.207.279-.173.464-.104.186.07 1.22.565 1.428.669.209.104.337.15.395.242.05.302.022.611-.082.899v.035Z" fill="#fff"/></svg>