<svg width="17" height="16" viewBox="0 0 17 16" fill="none" xmlns="http://www.w3.org/2000/svg">
<path d="M3.83145 8.67045L11.5581 8.67045L10.0248 10.1971C9.96262 10.2593 9.91332 10.3331 9.87968 10.4143C9.84604 10.4955 9.82872 10.5825 9.82872 10.6704C9.82872 10.7584 9.84604 10.8454 9.87968 10.9266C9.91332 11.0078 9.96262 11.0816 10.0248 11.1438C10.0869 11.2059 10.1607 11.2552 10.2419 11.2889C10.3232 11.3225 10.4102 11.3398 10.4981 11.3398C10.586 11.3398 10.6731 11.3225 10.7543 11.2889C10.8355 11.2552 10.9093 11.2059 10.9714 11.1438L13.6381 8.47712C13.6988 8.41371 13.7464 8.33895 13.7781 8.25712C13.8448 8.09481 13.8448 7.91276 13.7781 7.75045C13.7464 7.66861 13.6988 7.59385 13.6381 7.53045L10.9714 4.86378C10.9095 4.8013 10.8357 4.7517 10.7545 4.71785C10.6733 4.68401 10.5861 4.66658 10.4981 4.66658C10.4101 4.66658 10.323 4.68401 10.2417 4.71785C10.1605 4.7517 10.0868 4.8013 10.0248 4.86378C9.9623 4.92576 9.9127 4.99949 9.87886 5.08073C9.84501 5.16197 9.82758 5.24911 9.82758 5.33712C9.82758 5.42512 9.84501 5.51226 9.87886 5.5935C9.9127 5.67474 9.9623 5.74847 10.0248 5.81045L11.5581 7.33712L3.83145 7.33712C3.65464 7.33712 3.48507 7.40735 3.36005 7.53238C3.23502 7.6574 3.16478 7.82697 3.16478 8.00378C3.16478 8.18059 3.23502 8.35016 3.36005 8.47519C3.48507 8.60021 3.65464 8.67045 3.83145 8.67045Z" fill="#666666"/>
</svg>
