<svg width="28" height="28" viewBox="0 0 28 28" fill="none" xmlns="http://www.w3.org/2000/svg">
<path fill-rule="evenodd" clip-rule="evenodd" d="M9.33203 11.666V6.99935V4.66602H11.6654H15.1654C16.403 4.66602 17.59 5.15768 18.4652 6.03285C19.3404 6.90802 19.832 8.09501 19.832 9.33268C19.832 10.5704 19.3404 11.7573 18.4652 12.6325C17.59 13.5077 16.403 13.9993 15.1654 13.9993H11.6654V15.166V15.6992H13.707V18.0326H11.6654V21.5827C11.6654 21.8921 11.5424 22.1888 11.3237 22.4076C11.1049 22.6264 10.8081 22.7493 10.4987 22.7493C10.1893 22.7493 9.89253 22.6264 9.67374 22.4076C9.45495 22.1888 9.33203 21.8921 9.33203 21.5827V18.0827H8.16537V15.7493H9.33203V15.166V13.9993V11.666ZM15.1654 11.666H11.6654V6.99935H15.1654C15.7842 6.99935 16.3777 7.24518 16.8153 7.68277C17.2529 8.12035 17.4987 8.71384 17.4987 9.33268C17.4987 9.95152 17.2529 10.545 16.8153 10.9826C16.3777 11.4202 15.7842 11.666 15.1654 11.666Z" fill="#333333"/>
<path d="M13.707 18.0326V15.6992C14.0165 15.6992 14.3132 15.8221 14.532 16.0409C14.7508 16.2597 14.8737 16.5565 14.8737 16.8659C14.8737 17.1753 14.7508 17.4721 14.532 17.6908C14.3132 17.9096 14.0165 18.0326 13.707 18.0326Z" fill="#333333"/>
<path d="M8.16537 15.7493V18.0827C7.85595 18.0827 7.5592 17.9598 7.34041 17.741C7.12162 17.5222 6.9987 17.2254 6.9987 16.916C6.9987 16.6066 7.12162 16.3098 7.34041 16.0911C7.5592 15.8723 7.85595 15.7493 8.16537 15.7493Z" fill="#333333"/>
<path d="M8.16537 11.666V13.9993C7.85595 13.9993 7.5592 13.8764 7.34041 13.6576C7.12162 13.4388 6.9987 13.1421 6.9987 12.8327C6.9987 12.5233 7.12162 12.2265 7.34041 12.0077C7.5592 11.7889 7.85595 11.666 8.16537 11.666Z" fill="#333333"/>
<path d="M9.33203 11.666V13.9993H8.16537V11.666H9.33203Z" fill="#333333"/>
</svg>
