<svg width="18" height="12" viewBox="0 0 18 12" fill="none" xmlns="http://www.w3.org/2000/svg">
<path d="M1.67186 7.33659H2.67186C3.22415 7.33659 3.67186 7.7843 3.67186 8.33659V10.3366C3.67186 10.8889 3.22415 11.3366 2.67186 11.3366H1.67186C1.11958 11.3366 0.671864 10.8889 0.671864 10.3366V8.33659C0.671864 7.7843 1.11958 7.33659 1.67186 7.33659ZM6.33855 5.33659H7.33855C7.89084 5.33659 8.33855 5.7843 8.33855 6.33659V10.3366C8.33855 10.8889 7.89084 11.3366 7.33855 11.3366H6.33855C5.78627 11.3366 5.33855 10.8889 5.33855 10.3366V6.33659C5.33855 5.7843 5.78627 5.33659 6.33855 5.33659ZM11.0052 3.00326H12.0052C12.5575 3.00326 13.0052 3.45097 13.0052 4.00326V10.3366C13.0052 10.8889 12.5575 11.3366 12.0052 11.3366H11.0052C10.4529 11.3366 10.0052 10.8889 10.0052 10.3366V4.00326C10.0052 3.45097 10.4529 3.00326 11.0052 3.00326ZM15.6719 0.669921H16.6719C17.2241 0.669921 17.6719 1.11764 17.6719 1.66992V10.3366C17.6719 10.8889 17.2241 11.3366 16.6719 11.3366H15.6719C15.1196 11.3366 14.6719 10.8889 14.6719 10.3366V1.66992C14.6719 1.11764 15.1196 0.669921 15.6719 0.669921Z" fill="#1A1A1A"/>
</svg>
