<svg width="18" height="18" viewBox="0 0 18 18" fill="none" xmlns="http://www.w3.org/2000/svg">
<path d="M8.97797 9.67957L5.45 6.27931C5.26327 6.10041 5.01068 6 4.7474 6C4.48411 6 4.23152 6.10041 4.04479 6.27931C3.95138 6.36861 3.87724 6.47484 3.82665 6.59189C3.77605 6.70894 3.75 6.83449 3.75 6.96129C3.75 7.08809 3.77605 7.21363 3.82665 7.33068C3.87724 7.44773 3.95138 7.55396 4.04479 7.64326L8.27038 11.7159C8.36303 11.8059 8.47325 11.8774 8.5947 11.9261C8.71614 11.9749 8.8464 12 8.97797 12C9.10953 12 9.23979 11.9749 9.36123 11.9261C9.48268 11.8774 9.59291 11.8059 9.68555 11.7159L13.961 7.64326C14.0533 7.55351 14.1264 7.44706 14.176 7.33004C14.2256 7.21301 14.2507 7.0877 14.25 6.96129C14.2507 6.83487 14.2256 6.70956 14.176 6.59253C14.1264 6.47551 14.0533 6.36906 13.961 6.27931C13.7742 6.10041 13.5217 6 13.2584 6C12.9951 6 12.7425 6.10041 12.5558 6.27931L8.97797 9.67957Z" fill="white"/>
</svg>
