<svg width="24" height="24" viewBox="0 0 24 24" fill="none" xmlns="http://www.w3.org/2000/svg">
<path d="M10.0939 11.9706L14.6276 7.26667C14.8661 7.0177 15 6.68091 15 6.32986C15 5.97881 14.8661 5.64202 14.6276 5.39306C14.5085 5.26851 14.3669 5.16966 14.2108 5.10219C14.0547 5.03473 13.8874 5 13.7183 5C13.5492 5 13.3818 5.03473 13.2258 5.10219C13.0697 5.16966 12.928 5.26851 12.809 5.39306L7.37883 11.0272C7.25879 11.1507 7.16351 11.2977 7.09849 11.4596C7.03348 11.6215 7 11.7952 7 11.9706C7 12.146 7.03348 12.3197 7.09849 12.4816C7.16351 12.6436 7.25879 12.7905 7.37883 12.9141L12.809 18.6146C12.9287 18.7378 13.0706 18.8352 13.2266 18.9013C13.3827 18.9675 13.5497 19.001 13.7183 19C13.8868 19.001 14.0539 18.9675 14.21 18.9013C14.366 18.8352 14.5079 18.7378 14.6276 18.6146C14.8661 18.3657 15 18.0289 15 17.6778C15 17.3268 14.8661 16.99 14.6276 16.741L10.0939 11.9706Z" fill="#666666"/>
</svg>
