<svg width="155" height="40" viewBox="0 0 155 40" fill="none" xmlns="http://www.w3.org/2000/svg">
<path d="M81.9202 32.1002C81.4322 32.1002 81.0396 31.9516 80.7425 31.6544C80.4454 31.3572 80.2969 30.9539 80.2969 30.4444V11.0852C80.2969 10.597 80.4348 10.2149 80.7107 9.93896C81.0078 9.64178 81.4109 9.49319 81.9202 9.49319H89.5914C91.9681 9.49319 93.8142 10.0769 95.1299 11.2444C96.4455 12.4119 97.1034 14.0677 97.1034 16.2116C97.1034 18.3343 96.4455 19.99 95.1299 21.1788C93.8142 22.3675 91.9681 22.9619 89.5914 22.9619H83.5754V30.4444C83.5754 30.9539 83.4269 31.3572 83.1298 31.6544C82.8539 31.9516 82.4507 32.1002 81.9202 32.1002ZM89.2412 20.3191C92.3819 20.3191 93.9522 18.9499 93.9522 16.2116C93.9522 13.4945 92.3819 12.136 89.2412 12.136H83.5754V20.3191H89.2412Z" fill="#333333"/>
<path d="M106.899 32.1638C105.371 32.1638 104.024 31.8348 102.856 31.1768C101.711 30.5187 100.819 29.5847 100.183 28.3748C99.5673 27.1436 99.2596 25.7214 99.2596 24.1081C99.2596 22.4736 99.5673 21.0514 100.183 19.8415C100.819 18.6103 101.711 17.6657 102.856 17.0076C104.024 16.3496 105.371 16.0206 106.899 16.0206C108.427 16.0206 109.764 16.3496 110.91 17.0076C112.077 17.6657 112.968 18.6103 113.583 19.8415C114.22 21.0514 114.538 22.4736 114.538 24.1081C114.538 25.7214 114.22 27.1436 113.583 28.3748C112.968 29.5847 112.077 30.5187 110.91 31.1768C109.764 31.8348 108.427 32.1638 106.899 32.1638ZM106.899 29.6166C108.321 29.6166 109.403 29.1496 110.146 28.2156C110.91 27.2816 111.292 25.9124 111.292 24.1081C111.292 22.325 110.91 20.9665 110.146 20.0325C109.382 19.0773 108.3 18.5997 106.899 18.5997C105.498 18.5997 104.416 19.0773 103.652 20.0325C102.888 20.9665 102.506 22.325 102.506 24.1081C102.506 25.9124 102.878 27.2816 103.62 28.2156C104.384 29.1496 105.477 29.6166 106.899 29.6166Z" fill="#333333"/>
<path d="M135.911 9.33398C136.399 9.33398 136.792 9.49319 137.089 9.8116C137.386 10.1088 137.534 10.5015 137.534 10.9897V30.4444C137.534 30.9327 137.386 31.336 137.089 31.6544C136.792 31.9516 136.399 32.1002 135.911 32.1002C135.423 32.1002 135.03 31.9516 134.733 31.6544C134.436 31.3572 134.288 30.9539 134.288 30.4444V21.8793H121.746V30.4444C121.746 30.9327 121.598 31.336 121.301 31.6544C121.004 31.9516 120.611 32.1002 120.123 32.1002C119.635 32.1002 119.242 31.9516 118.945 31.6544C118.648 31.3572 118.5 30.9539 118.5 30.4444V10.9897C118.5 10.5015 118.648 10.1088 118.945 9.8116C119.242 9.49319 119.635 9.33398 120.123 9.33398C120.611 9.33398 121.004 9.49319 121.301 9.8116C121.598 10.1088 121.746 10.5015 121.746 10.9897V19.2046H134.288V10.9897C134.288 10.5015 134.436 10.1088 134.733 9.8116C135.03 9.49319 135.423 9.33398 135.911 9.33398Z" fill="#333333"/>
<path d="M148.889 16.0206C150.947 16.0206 152.475 16.5406 153.472 17.5808C154.491 18.6209 155 20.2023 155 22.325V30.5718C155 31.06 154.862 31.4421 154.587 31.7181C154.311 31.9728 153.929 32.1002 153.441 32.1002C152.974 32.1002 152.602 31.9622 152.327 31.6862C152.051 31.4103 151.913 31.0388 151.913 30.5718V29.3937C151.51 30.2852 150.905 30.9751 150.098 31.4634C149.313 31.9303 148.39 32.1638 147.329 32.1638C146.311 32.1638 145.377 31.9622 144.528 31.5589C143.679 31.1343 143.011 30.5506 142.523 29.8076C142.056 29.0647 141.822 28.2368 141.822 27.324C141.822 26.199 142.109 25.3181 142.682 24.6813C143.276 24.0232 144.242 23.5562 145.578 23.2803C146.937 23.0043 148.793 22.8663 151.149 22.8663H151.881V21.9429C151.881 20.7542 151.637 19.8945 151.149 19.3638C150.661 18.8332 149.876 18.5678 148.793 18.5678C148.051 18.5678 147.35 18.6633 146.693 18.8544C146.035 19.0454 145.313 19.3214 144.528 19.6823C143.955 20.0007 143.552 20.1599 143.319 20.1599C143 20.1599 142.735 20.0431 142.523 19.8096C142.332 19.5761 142.236 19.2789 142.236 18.9181C142.236 18.5997 142.321 18.3237 142.491 18.0902C142.682 17.8355 142.979 17.5914 143.382 17.3579C144.125 16.9546 144.995 16.6361 145.992 16.4026C146.99 16.1479 147.955 16.0206 148.889 16.0206ZM147.902 29.7758C149.069 29.7758 150.024 29.3831 150.767 28.5977C151.51 27.791 151.881 26.7615 151.881 25.5091V24.6813H151.308C149.653 24.6813 148.38 24.7556 147.488 24.9041C146.597 25.0527 145.96 25.3075 145.578 25.6683C145.197 26.008 145.006 26.5068 145.006 27.1648C145.006 27.929 145.281 28.5552 145.833 29.0434C146.385 29.5317 147.075 29.7758 147.902 29.7758Z" fill="#333333"/>
<path d="M67.7375 32.9694C63.5486 32.2218 61.1313 31.2865 56.6287 28.2661H13.1809C13.8646 20.8515 34.0341 21.3086 61.3195 20.0971L18.3655 19.3545C16.4509 15.1562 15.2876 13.633 13.1809 11.1856C14.2271 5.63078 16.3981 4.52394 20.8341 3.26419C23.7964 2.52156 41.9446 3.79811 56.6287 2.52156H42.558C34.95 2.2731 25.7713 0.43101 23.7964 0.293673C21.8215 0.156335 19.5998 -0.0639835 18.3655 0.293673C17.1312 0.651329 11.7002 4.50188 10.219 9.70032C10.219 9.70032 8.84729 9.52589 7.99725 9.70032C7.60239 9.78134 7.0098 10.0013 7.0098 10.0013C4.7303 11.4953 4.6102 12.109 4.04745 13.9086C1.80083 13.9405 0.0976562 15.1997 0.0976562 16.1364V18.3643C0.0976562 19.3545 1.57883 20.8932 3.30687 21.0873H6.51608C8.08751 24.2282 8.47473 27.0343 8.73784 32.9694H10.219V34.2071H11.2065V35.9934H10.219V37.1776C10.9596 37.7262 11.2065 38.2212 11.2065 39.9006H13.1809C13.1809 38.2212 13.4282 37.7262 14.1688 37.1776V35.9934H13.1814L13.1809 34.2071H14.1688V32.9694H67.7375Z" fill="#0C8627"/>
<path fill-rule="evenodd" clip-rule="evenodd" d="M20.8022 0.207416C19.8463 0.179897 18.9959 0.215009 18.395 0.389151C18.1033 0.473674 17.5438 0.772957 16.8389 1.26483C16.1374 1.75426 15.3007 2.42809 14.4561 3.25281C12.7655 4.90352 11.0505 7.15133 10.3165 9.7275L10.2931 9.80971L10.2083 9.79893L10.2046 9.79848L10.1933 9.7971L10.149 9.79194C10.1104 9.78757 10.054 9.7815 9.9837 9.77474C9.84299 9.76123 9.64657 9.74501 9.42389 9.7342C8.97612 9.71246 8.43116 9.71313 8.01905 9.7977C7.82756 9.83699 7.58524 9.91071 7.3884 9.97561C7.2905 10.0079 7.20481 10.0377 7.14361 10.0594L7.07183 10.0851L7.05662 10.0907C5.92602 10.8324 5.3418 11.3493 4.96883 11.8963C4.62123 12.4062 4.4528 12.9472 4.2046 13.7445C4.185 13.8074 4.16492 13.8719 4.1442 13.9382L4.1227 14.0069L4.05068 14.008C2.94496 14.0237 1.97512 14.3415 1.2841 14.7678C0.938507 14.981 0.66514 15.2197 0.479185 15.4587C0.292501 15.6986 0.198941 15.9319 0.198941 16.1363V18.3642C0.198941 18.5884 0.283368 18.8528 0.443985 19.1303C0.603985 19.4067 0.836232 19.6901 1.12294 19.9506C1.69582 20.4711 2.47717 20.8922 3.31428 20.9877H6.57934L6.60684 21.0427C8.17994 24.1869 8.57167 26.9981 8.83478 32.8698H10.3203V34.1075H11.3077V36.0928H10.3203V37.1277C10.6776 37.3981 10.9275 37.6683 11.0851 38.0793C11.2399 38.4829 11.3027 39.0144 11.3074 39.801H13.0836C13.0883 39.0144 13.1512 38.4828 13.3061 38.0793C13.4639 37.6683 13.7139 37.3981 14.0711 37.1277V36.0928H13.0837L13.0832 34.1075H14.0711V32.8698H66.6818C63.0953 32.1426 60.7124 31.1216 56.6002 28.3655H13.0737L13.0837 28.2568C13.2596 26.3486 14.6909 24.9644 17.1171 23.9402C19.5443 22.9157 22.9941 22.2387 27.2652 21.7565C33.4102 21.0627 41.277 20.7703 50.2846 20.4354C52.7715 20.343 55.3453 20.2473 57.9939 20.139L18.3028 19.4528L18.2768 19.3957C16.3667 15.2072 15.2089 13.6919 13.1073 11.2504L13.0761 11.2141L13.085 11.1671C13.61 8.37956 14.4204 6.69 15.6709 5.54087C16.9182 4.39462 18.5915 3.79805 20.8087 3.16838L20.8117 3.16753C21.1926 3.07205 21.809 3.0106 22.6174 2.97194C23.4281 2.93317 24.4392 2.91713 25.6134 2.91478C27.236 2.91153 29.173 2.93443 31.3271 2.9599C32.2904 2.97129 33.2971 2.9832 34.3385 2.9935C40.2923 3.05243 47.3851 3.05926 54.0143 2.62097H42.5565C38.7468 2.49655 34.5457 1.9732 31.0523 1.46431C29.6497 1.26001 28.3605 1.05792 27.2564 0.88484C26.9853 0.842346 26.7254 0.801601 26.4777 0.763001C25.2186 0.566792 24.2798 0.426806 23.7913 0.39284C23.5658 0.377157 23.3374 0.360419 23.1078 0.343597C22.3299 0.286594 21.5387 0.228621 20.8022 0.207416ZM7.01161 10.0012L6.97702 9.90793L6.98406 9.90533L7.00386 9.89809L7.07714 9.8718C7.13939 9.84972 7.22652 9.81945 7.32613 9.7866C7.5243 9.72126 7.7757 9.64448 7.97908 9.60275C8.417 9.51289 8.98292 9.51356 9.43353 9.53543C9.66003 9.54642 9.85967 9.56291 10.0027 9.57665C10.0616 9.5823 10.1109 9.5875 10.1487 9.59166C10.9083 7.00364 12.631 4.75678 14.3171 3.1104C15.1697 2.27798 16.0148 1.5972 16.7251 1.10161C17.4318 0.608465 18.0141 0.292309 18.3396 0.198004C18.9729 0.0144892 19.8506 -0.019067 20.8079 0.00849334C21.5493 0.0298382 22.3466 0.0882655 23.1253 0.145333C23.3542 0.162103 23.5814 0.178755 23.8051 0.194314C24.3042 0.229017 25.2533 0.370794 26.5083 0.566367C26.7563 0.605009 27.0164 0.645783 27.2876 0.688295C28.3917 0.861367 29.6795 1.06325 31.0809 1.26739C34.572 1.77592 38.7636 2.29782 42.5614 2.42196H56.6305L56.6391 2.6206C49.2918 3.25933 41.0795 3.25924 34.3366 3.1925C33.2939 3.18218 32.2866 3.17027 31.323 3.15887C29.1697 3.13341 27.235 3.11053 25.6138 3.11378C24.4406 3.11613 23.4331 3.13217 22.6269 3.17072C21.8196 3.20933 21.2214 3.27027 20.8616 3.36024C18.6436 3.99016 17.0139 4.57687 15.8055 5.68742C14.6067 6.78906 13.8108 8.418 13.2894 11.1569C15.372 13.5781 16.5376 15.1118 18.4317 19.256L61.323 19.9976L61.3257 20.1964C57.4923 20.3666 53.8003 20.5039 50.2835 20.6346C41.2796 20.9693 33.4245 21.2614 27.2875 21.9542C23.0202 22.436 19.5941 23.1107 17.1945 24.1236C14.8426 25.1164 13.5026 26.422 13.2933 28.1665H56.6607L56.6859 28.1833C61.1784 31.1969 63.583 32.1264 67.7567 32.8713L67.7393 33.0688H14.2701V34.3065H13.2822L13.2826 35.8938H14.2701V37.2277L14.2298 37.2575C13.8681 37.5254 13.637 37.7724 13.4918 38.1506C13.3444 38.5348 13.2822 39.0628 13.2822 39.9005V40H11.1088V39.9005C11.1088 39.0628 11.0468 38.5348 10.8994 38.1506C10.7543 37.7724 10.5233 37.5254 10.1616 37.2575L10.1214 37.2277V35.8938H11.1088V34.3065H10.1214V33.0688H8.64449L8.64028 32.9737C8.37878 27.0749 7.99479 24.2853 6.45634 21.1867H3.29751C2.40866 21.0869 1.58764 20.6417 0.989182 20.0979C0.689593 19.8257 0.443544 19.5267 0.271824 19.23C0.10072 18.9344 0 18.6352 0 18.3642V16.1363C0 15.8725 0.119336 15.5971 0.322204 15.3364C0.5258 15.0748 0.818641 14.8211 1.17967 14.5984C1.88662 14.1623 2.86458 13.8391 3.97567 13.8104C3.98976 13.7652 4.00361 13.7207 4.01724 13.6769C4.26221 12.8893 4.43938 12.3197 4.80448 11.7842C5.20108 11.2025 5.81443 10.6669 6.9571 9.91799L6.97612 9.90553L7.01161 10.0012Z" fill="#0C8627"/>
</svg>
