<svg width="20" height="20" viewBox="0 0 20 20" fill="none" xmlns="http://www.w3.org/2000/svg">
<path d="M9.9987 1.66602C8.23059 1.66602 6.53489 2.36839 5.28465 3.61864C4.03441 4.86888 3.33203 6.56457 3.33203 8.33268C3.33203 12.8327 9.20703 17.916 9.45703 18.1327C9.60797 18.2618 9.80007 18.3327 9.9987 18.3327C10.1973 18.3327 10.3894 18.2618 10.5404 18.1327C10.832 17.916 16.6654 12.8327 16.6654 8.33268C16.6654 6.56457 15.963 4.86888 14.7127 3.61864C13.4625 2.36839 11.7668 1.66602 9.9987 1.66602ZM9.9987 16.3743C8.2237 14.7077 4.9987 11.116 4.9987 8.33268C4.9987 7.0066 5.52548 5.73483 6.46316 4.79715C7.40085 3.85947 8.67262 3.33268 9.9987 3.33268C11.3248 3.33268 12.5965 3.85947 13.5342 4.79715C14.4719 5.73483 14.9987 7.0066 14.9987 8.33268C14.9987 11.116 11.7737 14.716 9.9987 16.3743ZM9.9987 4.99935C9.33943 4.99935 8.69496 5.19485 8.1468 5.56112C7.59863 5.92739 7.17139 6.44798 6.9191 7.05707C6.66681 7.66616 6.6008 8.33638 6.72941 8.98298C6.85803 9.62959 7.1755 10.2235 7.64167 10.6897C8.10785 11.1559 8.70179 11.4733 9.3484 11.602C9.995 11.7306 10.6652 11.6646 11.2743 11.4123C11.8834 11.16 12.404 10.7327 12.7703 10.1846C13.1365 9.63642 13.332 8.99195 13.332 8.33268C13.332 7.44863 12.9808 6.60078 12.3557 5.97566C11.7306 5.35054 10.8828 4.99935 9.9987 4.99935ZM9.9987 9.99935C9.66906 9.99935 9.34683 9.9016 9.07275 9.71846C8.79867 9.53533 8.58504 9.27503 8.4589 8.97049C8.33275 8.66594 8.29975 8.33083 8.36406 8.00753C8.42836 7.68423 8.5871 7.38726 8.82019 7.15417C9.05327 6.92108 9.35024 6.76235 9.67355 6.69804C9.99685 6.63373 10.332 6.66674 10.6365 6.79288C10.941 6.91903 11.2013 7.13265 11.3845 7.40673C11.5676 7.68081 11.6654 8.00305 11.6654 8.33268C11.6654 8.77471 11.4898 9.19863 11.1772 9.51119C10.8646 9.82375 10.4407 9.99935 9.9987 9.99935Z" fill="#CCCCCC"/>
</svg>
