<svg width="24" height="24" viewBox="0 0 24 24" fill="none" xmlns="http://www.w3.org/2000/svg">
<path d="M19.4425 12.9994C19.2225 12.9994 18.9925 12.9294 18.7725 12.8794C18.327 12.7812 17.8892 12.6509 17.4625 12.4894C16.9986 12.3206 16.4887 12.3294 16.0309 12.514C15.573 12.6986 15.1996 13.046 14.9825 13.4894L14.7625 13.9394C13.7885 13.3976 12.8935 12.7246 12.1025 11.9394C11.3173 11.1484 10.6444 10.2534 10.1025 9.27938L10.5225 8.99938C10.9659 8.7823 11.3133 8.40891 11.4979 7.95107C11.6825 7.49323 11.6913 6.98329 11.5225 6.51938C11.3638 6.0918 11.2335 5.65418 11.1325 5.20938C11.0825 4.98938 11.0425 4.75938 11.0125 4.52938C10.8911 3.825 10.5222 3.18712 9.97216 2.73062C9.42216 2.27412 8.72724 2.02899 8.01254 2.03938H5.01254C4.58157 2.03533 4.15479 2.12419 3.76125 2.29991C3.36771 2.47563 3.01665 2.73408 2.73197 3.05766C2.44729 3.38125 2.23568 3.76237 2.11153 4.17509C1.98738 4.58781 1.95362 5.02244 2.01254 5.44938C2.54528 9.63876 4.45857 13.5313 7.45019 16.512C10.4418 19.4928 14.3413 21.3919 18.5325 21.9094H18.9125C19.65 21.9105 20.3619 21.6399 20.9125 21.1494C21.2289 20.8664 21.4816 20.5196 21.654 20.1317C21.8264 19.7438 21.9145 19.3238 21.9125 18.8994V15.8994C21.9003 15.2048 21.6473 14.5359 21.1969 14.007C20.7464 13.4782 20.1264 13.122 19.4425 12.9994ZM19.9425 18.9994C19.9424 19.1414 19.9119 19.2817 19.8533 19.411C19.7947 19.5403 19.7092 19.6557 19.6025 19.7494C19.4908 19.8459 19.3601 19.9179 19.2189 19.961C19.0777 20.004 18.9291 20.0171 18.7825 19.9994C15.0374 19.5192 11.5588 17.8059 8.89526 15.1297C6.23174 12.4535 4.53495 8.96672 4.07254 5.21938C4.05663 5.0729 4.07057 4.92471 4.11354 4.78377C4.15651 4.64283 4.22761 4.51207 4.32254 4.39938C4.41625 4.29271 4.5316 4.20722 4.66092 4.1486C4.79024 4.08997 4.93056 4.05956 5.07254 4.05938H8.07254C8.30509 4.05421 8.53217 4.13026 8.71469 4.27445C8.89721 4.41864 9.02375 4.62195 9.07254 4.84938C9.11254 5.12271 9.16254 5.39271 9.22254 5.65938C9.33806 6.18652 9.4918 6.70456 9.68254 7.20938L8.28254 7.85938C8.16284 7.9143 8.05516 7.99233 7.9657 8.08898C7.87624 8.18562 7.80674 8.29899 7.76121 8.42257C7.71568 8.54615 7.69501 8.67751 7.70039 8.8091C7.70577 8.94069 7.73708 9.06992 7.79254 9.18938C9.23174 12.2721 11.7098 14.7502 14.7925 16.1894C15.036 16.2894 15.3091 16.2894 15.5525 16.1894C15.6773 16.1448 15.7919 16.0758 15.8897 15.9866C15.9876 15.8973 16.0667 15.7895 16.1225 15.6694L16.7425 14.2694C17.2595 14.4543 17.7871 14.6079 18.3225 14.7294C18.5892 14.7894 18.8592 14.8394 19.1325 14.8794C19.36 14.9282 19.5633 15.0547 19.7075 15.2372C19.8517 15.4198 19.9277 15.6468 19.9225 15.8794L19.9425 18.9994Z" fill="#F97316"/>
</svg>
