<svg width="16" height="12" viewBox="0 0 16 12" fill="none" xmlns="http://www.w3.org/2000/svg">
<path d="M8.328 2.60741C10.5439 2.6075 12.6751 3.45894 14.281 4.98574C14.4019 5.10361 14.5952 5.10213 14.7144 4.98241L15.8704 3.81574C15.9307 3.75502 15.9643 3.67277 15.9638 3.58719C15.9633 3.50161 15.9287 3.41975 15.8677 3.35974C11.6526 -0.67981 5.00279 -0.67981 0.787688 3.35974C0.726629 3.41971 0.691968 3.50153 0.691405 3.58711C0.690842 3.6727 0.724403 3.75497 0.784667 3.81574L1.94101 4.98241C2.06004 5.10231 2.2535 5.1038 2.37436 4.98574C3.98051 3.45884 6.11189 2.6074 8.328 2.60741ZM8.328 6.40307C9.54549 6.403 10.7195 6.85553 11.622 7.67274C11.7441 7.78872 11.9364 7.78621 12.0554 7.66707L13.21 6.5004C13.2708 6.43921 13.3046 6.35619 13.3037 6.26993C13.3028 6.18366 13.2674 6.10135 13.2054 6.04141C10.4572 3.48502 6.2012 3.48502 3.453 6.04141C3.39092 6.10135 3.35552 6.1837 3.3547 6.27C3.35389 6.35629 3.38773 6.4393 3.44867 6.5004L4.60303 7.66707C4.72201 7.78621 4.91428 7.78872 5.03635 7.67274C5.93822 6.85607 7.11132 6.40358 8.328 6.40307ZM10.547 9.18741C10.6088 9.1268 10.6428 9.0434 10.641 8.95689C10.6393 8.87038 10.6019 8.78844 10.5377 8.73041C9.26212 7.65152 7.39392 7.65152 6.11835 8.73041C6.05412 8.78839 6.01669 8.87031 6.01486 8.95682C6.01303 9.04333 6.04696 9.12675 6.10867 9.18741L8.10635 11.2031C8.1649 11.2623 8.24471 11.2956 8.328 11.2956C8.41129 11.2956 8.49113 11.2623 8.54968 11.2031L10.547 9.18741Z" fill="#1A1A1A"/>
</svg>
