<svg width="20" height="20" viewBox="0 0 20 20" fill="none" xmlns="http://www.w3.org/2000/svg">
<path d="M4.16431 10.839L13.8226 10.839L11.906 12.7474C11.8283 12.8251 11.7666 12.9173 11.7246 13.0188C11.6825 13.1203 11.6609 13.2292 11.6609 13.339C11.6609 13.4489 11.6825 13.5577 11.7246 13.6592C11.7666 13.7608 11.8283 13.853 11.906 13.9307C11.9837 14.0084 12.0759 14.07 12.1774 14.1121C12.279 14.1541 12.3878 14.1758 12.4976 14.1758C12.6075 14.1758 12.7163 14.1541 12.8179 14.1121C12.9194 14.07 13.0116 14.0084 13.0893 13.9307L16.4226 10.5974C16.4985 10.5181 16.558 10.4247 16.5976 10.3224C16.681 10.1195 16.681 9.89192 16.5976 9.68904C16.558 9.58674 16.4985 9.49329 16.4226 9.41404L13.0893 6.0807C13.0118 6.0026 12.9197 5.9406 12.8181 5.89829C12.7166 5.85599 12.6077 5.83421 12.4976 5.83421C12.3876 5.83421 12.2787 5.85599 12.1772 5.89829C12.0756 5.9406 11.9834 6.0026 11.906 6.0807C11.8279 6.15817 11.7659 6.25034 11.7236 6.35189C11.6813 6.45344 11.6595 6.56236 11.6595 6.67237C11.6595 6.78238 11.6813 6.8913 11.7236 6.99285C11.7659 7.0944 11.8279 7.18657 11.906 7.26404L13.8226 9.17237L4.16431 9.17237C3.9433 9.17237 3.73134 9.26017 3.57506 9.41645C3.41878 9.57273 3.33098 9.78469 3.33098 10.0057C3.33098 10.2267 3.41878 10.4387 3.57506 10.595C3.73134 10.7512 3.9433 10.839 4.16431 10.839Z" fill="#EA580C"/>
</svg>
