<svg width="20" height="20" viewBox="0 0 20 20" fill="none" xmlns="http://www.w3.org/2000/svg">
<path d="M15.8346 3.33398H4.16797C3.50493 3.33398 2.86904 3.59738 2.4002 4.06622C1.93136 4.53506 1.66797 5.17094 1.66797 5.83398V14.1673C1.66797 14.8304 1.93136 15.4662 2.4002 15.9351C2.86904 16.4039 3.50493 16.6673 4.16797 16.6673H15.8346C16.4977 16.6673 17.1336 16.4039 17.6024 15.9351C18.0712 15.4662 18.3346 14.8304 18.3346 14.1673V5.83398C18.3346 5.17094 18.0712 4.53506 17.6024 4.06622C17.1336 3.59738 16.4977 3.33398 15.8346 3.33398ZM15.493 5.00065L10.593 9.90065C10.5155 9.97876 10.4233 10.0408 10.3218 10.0831C10.2202 10.1254 10.1113 10.1471 10.0013 10.1471C9.89129 10.1471 9.78237 10.1254 9.68082 10.0831C9.57927 10.0408 9.4871 9.97876 9.40964 9.90065L4.50964 5.00065H15.493ZM16.668 14.1673C16.668 14.3883 16.5802 14.6003 16.4239 14.7566C16.2676 14.9129 16.0556 15.0007 15.8346 15.0007H4.16797C3.94696 15.0007 3.73499 14.9129 3.57871 14.7566C3.42243 14.6003 3.33464 14.3883 3.33464 14.1673V6.17565L8.23464 11.0757C8.70339 11.5438 9.3388 11.8068 10.0013 11.8068C10.6638 11.8068 11.2992 11.5438 11.768 11.0757L16.668 6.17565V14.1673Z" fill="white"/>
</svg>
