<svg width="16" height="16" viewBox="0 0 16 16" fill="none" xmlns="http://www.w3.org/2000/svg">
<path d="M14.4742 13.5276L12.0009 11.0742C12.961 9.87719 13.4259 8.35778 13.3001 6.82845C13.1743 5.29911 12.4674 3.8761 11.3246 2.85201C10.1818 1.82792 8.69012 1.28059 7.15619 1.32256C5.62227 1.36453 4.16273 1.99262 3.07767 3.07767C1.99262 4.16273 1.36453 5.62227 1.32256 7.15619C1.28059 8.69012 1.82792 10.1818 2.85201 11.3246C3.8761 12.4674 5.29911 13.1743 6.82845 13.3001C8.35778 13.4259 9.87719 12.961 11.0742 12.0009L13.5276 14.4542C13.5896 14.5167 13.6633 14.5663 13.7445 14.6002C13.8258 14.634 13.9129 14.6514 14.0009 14.6514C14.0889 14.6514 14.1761 14.634 14.2573 14.6002C14.3385 14.5663 14.4123 14.5167 14.4742 14.4542C14.5944 14.3299 14.6616 14.1638 14.6616 13.9909C14.6616 13.818 14.5944 13.6519 14.4742 13.5276ZM7.33425 12.0009C6.41127 12.0009 5.50901 11.7272 4.74158 11.2144C3.97416 10.7017 3.37602 9.97282 3.02281 9.1201C2.6696 8.26738 2.57718 7.32907 2.75725 6.42382C2.93731 5.51858 3.38177 4.68706 4.03441 4.03441C4.68706 3.38177 5.51858 2.93731 6.42382 2.75725C7.32907 2.57718 8.26738 2.6696 9.1201 3.02281C9.97282 3.37602 10.7017 3.97416 11.2144 4.74158C11.7272 5.50901 12.0009 6.41127 12.0009 7.33425C12.0009 8.57192 11.5092 9.75891 10.6341 10.6341C9.75891 11.5092 8.57192 12.0009 7.33425 12.0009Z" fill="#B3B3B3"/>
</svg>
