<svg width="20" height="20" viewBox="0 0 20 20" fill="none" xmlns="http://www.w3.org/2000/svg">
<path fill-rule="evenodd" clip-rule="evenodd" d="M18.2846 6.86602C18.2708 6.15387 18.1356 5.4493 17.8846 4.78268C17.652 4.17607 17.2943 3.62518 16.8349 3.16576C16.3755 2.70635 15.8246 2.3487 15.218 2.11602C14.5513 1.8651 13.8468 1.72982 13.1346 1.71602C12.3263 1.66602 12.0596 1.66602 10.0013 1.66602C7.94297 1.66602 7.6763 1.66602 6.86797 1.71602C6.15582 1.72982 5.45126 1.8651 4.78464 2.11602C4.17802 2.3487 3.62713 2.70635 3.16772 3.16576C2.70831 3.62518 2.35065 4.17607 2.11797 4.78268C1.86705 5.4493 1.73178 6.15387 1.71797 6.86602C1.66797 7.68268 1.66797 7.94935 1.66797 9.99935C1.66797 12.0493 1.66797 12.316 1.71797 13.1327C1.73178 13.8448 1.86705 14.5494 2.11797 15.216C2.35065 15.8226 2.70831 16.3735 3.16772 16.8329C3.62713 17.2923 4.17802 17.65 4.78464 17.8827C5.45126 18.1336 6.15582 18.2689 6.86797 18.2827C7.19202 18.2827 7.4266 18.2902 7.71333 18.2995C8.16395 18.314 8.74337 18.3327 10.0013 18.3327C12.0596 18.3327 12.3263 18.3327 13.1346 18.2827C13.8468 18.2689 14.5513 18.1336 15.218 17.8827C15.8246 17.65 16.3755 17.2923 16.8349 16.8329C17.2943 16.3735 17.652 15.8226 17.8846 15.216C18.1356 14.5494 18.2708 13.8448 18.2846 13.1327C18.2846 12.8082 18.2922 12.5722 18.3015 12.2839C18.316 11.8318 18.3346 11.2512 18.3346 9.99935C18.3346 7.94935 18.3346 7.68268 18.2846 6.86602ZM16.3263 14.6077C16.5049 14.1097 16.6034 13.5865 16.618 13.0577H16.668C16.668 12.7485 16.6742 12.5228 16.6818 12.2457C16.694 11.8058 16.7096 11.2367 16.7096 9.99935C16.7096 8.77179 16.6942 8.21426 16.6821 7.77795C16.6743 7.49748 16.668 7.26709 16.668 6.94102C16.6459 6.39483 16.5303 5.85648 16.3263 5.34935C16.1847 4.95469 15.9537 4.59816 15.6513 4.30768C15.3625 4.00729 15.0091 3.77648 14.618 3.63268C14.1157 3.44764 13.5864 3.34629 13.0513 3.33268H10.0013C7.9763 3.33268 7.73464 3.33268 6.9513 3.41602C6.41879 3.42871 5.89213 3.5301 5.39297 3.71602C4.99831 3.85761 4.64178 4.08864 4.3513 4.39102C4.05091 4.67987 3.8201 5.03321 3.6763 5.42435C3.492 5.92396 3.39067 6.45036 3.3763 6.98268V10.041V13.0993C3.38976 13.6291 3.49114 14.1529 3.6763 14.6493C3.8179 15.044 4.04893 15.4005 4.3513 15.691C4.64353 15.9933 4.99935 16.2267 5.39297 16.3743C5.8936 16.5538 6.41965 16.6523 6.9513 16.666H9.99297C11.2415 16.666 11.8121 16.6502 12.2497 16.638L12.3497 16.6353C12.5783 16.629 12.7802 16.6244 13.043 16.6244C13.5755 16.6117 14.1021 16.5103 14.6013 16.3243C14.996 16.1828 15.3525 15.9517 15.643 15.6494C15.9452 15.3571 16.1786 15.0013 16.3263 14.6077Z" fill="white"/>
<path fill-rule="evenodd" clip-rule="evenodd" d="M10.0013 5.83268C9.17721 5.83268 8.37163 6.07705 7.68643 6.53489C7.00122 6.99273 6.46717 7.64348 6.1518 8.40484C5.83644 9.16619 5.75393 10.004 5.9147 10.8122C6.07547 11.6205 6.47231 12.3629 7.05502 12.9456C7.63774 13.5283 8.38017 13.9252 9.18843 14.086C9.99668 14.2467 10.8345 14.1642 11.5958 13.8488C12.3572 13.5335 13.0079 12.9994 13.4658 12.3142C13.9236 11.629 14.168 10.8234 14.168 9.99935C14.168 8.89428 13.729 7.83447 12.9476 7.05307C12.1662 6.27167 11.1064 5.83268 10.0013 5.83268ZM8.61238 12.078C9.0235 12.3527 9.50685 12.4993 10.0013 12.4993C10.6643 12.4993 11.3002 12.236 11.7691 11.7671C12.2379 11.2983 12.5013 10.6624 12.5013 9.99935C12.5013 9.5049 12.3547 9.02155 12.08 8.61042C11.8053 8.1993 11.4148 7.87887 10.958 7.68965C10.5012 7.50043 9.99853 7.45092 9.51358 7.54739C9.02862 7.64385 8.58317 7.88195 8.23354 8.23158C7.8839 8.58121 7.6458 9.02667 7.54934 9.51162C7.45288 9.99658 7.50238 10.4992 7.6916 10.9561C7.88082 11.4129 8.20125 11.8033 8.61238 12.078Z" fill="white"/>
<path d="M14.168 4.99935C14.0032 4.99935 13.842 5.04822 13.705 5.13979C13.568 5.23136 13.4611 5.36151 13.3981 5.51378C13.335 5.66605 13.3185 5.83361 13.3506 5.99526C13.3828 6.15691 13.4622 6.30539 13.5787 6.42194C13.6953 6.53848 13.8437 6.61785 14.0054 6.65C14.167 6.68216 14.3346 6.66566 14.4869 6.60258C14.6391 6.53951 14.7693 6.4327 14.8609 6.29566C14.9524 6.15862 15.0013 5.9975 15.0013 5.83268C15.0013 5.61167 14.9135 5.39971 14.7572 5.24343C14.6009 5.08715 14.389 4.99935 14.168 4.99935Z" fill="white"/>
</svg>
