<svg width="16" height="16" viewBox="0 0 16 16" fill="none" xmlns="http://www.w3.org/2000/svg">
<path fill-rule="evenodd" clip-rule="evenodd" d="M5.33203 6.66602V3.99935V2.66602H6.66536H8.66536C9.37261 2.66602 10.0509 2.94697 10.551 3.44706C11.0511 3.94716 11.332 4.62544 11.332 5.33268C11.332 6.03993 11.0511 6.7182 10.551 7.2183C10.0509 7.7184 9.37261 7.99935 8.66536 7.99935H6.66536V8.66602V8.9707H7.83203V10.304H6.66536V12.3327C6.66536 12.5095 6.59513 12.6791 6.4701 12.8041C6.34508 12.9291 6.17551 12.9993 5.9987 12.9993C5.82189 12.9993 5.65232 12.9291 5.52729 12.8041C5.40227 12.6791 5.33203 12.5095 5.33203 12.3327V10.3327H4.66537V8.99935H5.33203V8.66602V7.99935V6.66602ZM8.66536 6.66602H6.66536V3.99935H8.66536C9.01899 3.99935 9.35812 4.13982 9.60817 4.38987C9.85822 4.63992 9.9987 4.97906 9.9987 5.33268C9.9987 5.6863 9.85822 6.02544 9.60817 6.27549C9.35812 6.52554 9.01899 6.66602 8.66536 6.66602Z" fill="#333333"/>
<path d="M7.83203 10.304V8.9707C8.00884 8.9707 8.17841 9.04094 8.30344 9.16597C8.42846 9.29099 8.4987 9.46056 8.4987 9.63737C8.4987 9.81418 8.42846 9.98375 8.30344 10.1088C8.17841 10.2338 8.00884 10.304 7.83203 10.304Z" fill="#333333"/>
<path d="M4.66537 8.99935V10.3327C4.48855 10.3327 4.31898 10.2624 4.19396 10.1374C4.06894 10.0124 3.9987 9.84283 3.9987 9.66602C3.9987 9.4892 4.06894 9.31963 4.19396 9.19461C4.31898 9.06959 4.48855 8.99935 4.66537 8.99935Z" fill="#333333"/>
<path d="M4.66537 6.66602V7.99935C4.48855 7.99935 4.31898 7.92911 4.19396 7.80409C4.06894 7.67906 3.9987 7.50949 3.9987 7.33268C3.9987 7.15587 4.06894 6.9863 4.19396 6.86128C4.31898 6.73625 4.48855 6.66602 4.66537 6.66602Z" fill="#333333"/>
<path d="M5.33203 6.66602V7.99935H4.66537V6.66602H5.33203Z" fill="#333333"/>
</svg>
