<svg width="20" height="20" viewBox="0 0 20 20" fill="none" xmlns="http://www.w3.org/2000/svg">
<path fill-rule="evenodd" clip-rule="evenodd" d="M15.537 5.67421C15.502 5.67179 15.4672 5.68089 15.4378 5.70012C15.4085 5.71935 15.3863 5.74766 15.3746 5.78072L15.3688 5.79698L15.3621 5.8129C14.7767 7.21293 13.9905 8.52023 13.0282 9.69366L13.0087 9.7175L12.9869 9.7393C12.5955 10.1307 12.2335 10.4824 11.6983 10.4824C11.0491 10.4824 10.7866 9.84984 10.7866 9.33643V5.71505C10.7866 5.70102 10.7865 5.68792 10.7862 5.67571H8.38421C8.38767 5.68036 8.39115 5.68505 8.39462 5.68977C8.63012 6.00971 8.86152 6.45473 8.90905 7.19933L8.91032 7.21921V9.92262C8.91032 10.2082 8.89322 10.5347 8.74985 10.7919C8.6614 10.9506 8.52788 11.081 8.35156 11.159C8.19373 11.2289 8.04293 11.238 7.94666 11.238C7.69082 11.238 7.47644 11.1264 7.33371 11.0322C7.17901 10.9301 7.03004 10.7957 6.89059 10.6496C6.61039 10.3559 6.31158 9.95416 6.01666 9.4884C5.42609 8.55576 4.80743 7.29709 4.3494 5.95284C4.3104 5.85055 4.27932 5.78228 4.2529 5.73505C4.23746 5.70744 4.22631 5.69198 4.2201 5.68425C4.20661 5.68106 4.17525 5.67571 4.1169 5.67571H2.33184C2.80557 7.70328 3.72861 9.59976 5.034 11.2246L5.05734 11.2536L5.07706 11.2852C5.62142 12.1579 6.36531 12.8887 7.24745 13.4176C8.1236 13.9429 9.11125 14.254 10.1301 14.3257C10.389 14.325 10.5689 14.3097 10.6924 14.2878C10.7323 14.2807 10.7631 14.2734 10.7865 14.267C10.7866 14.2609 10.7866 14.2544 10.7866 14.2474V12.606C10.7866 12.4609 10.7934 12.3118 10.8197 12.1726C10.8461 12.0327 10.8996 11.861 11.0238 11.7065C11.2961 11.3677 11.6989 11.3558 11.8937 11.3558C12.4315 11.3558 13.0447 11.6494 14.1381 12.7031L14.1464 12.7111C14.4665 13.0313 14.7195 13.3072 14.9272 13.5375C14.9707 13.5857 15.0115 13.6311 15.0499 13.6738C15.2004 13.8413 15.3154 13.9692 15.4208 14.0753C15.5509 14.2061 15.6281 14.263 15.6816 14.2913C15.7213 14.3123 15.7625 14.3258 15.8406 14.3258H17.6614C17.3079 13.6482 16.8526 13.0285 16.3111 12.4884L16.2925 12.4697L16.2754 12.4496C16.0843 12.2237 15.8417 11.9862 15.6014 11.7509L15.5971 11.7467C15.5866 11.7364 15.576 11.7259 15.5652 11.7154C15.3676 11.5221 15.1296 11.2893 14.9962 11.0979C14.8284 10.8784 14.6753 10.6002 14.7032 10.2564C14.7268 9.96516 14.8825 9.72766 14.9668 9.5991C14.9709 9.59287 14.9748 9.58689 14.9785 9.58118L14.9881 9.56645L14.9985 9.55227C15.8897 8.34084 16.655 7.04192 17.2826 5.67571H15.5585L15.537 5.67421ZM15.5986 4.42571C15.2996 4.41026 15.0031 4.49038 14.7524 4.65481C14.5003 4.82013 14.3079 5.06175 14.2033 5.34409C13.6692 6.61759 12.9545 7.8075 12.0812 8.87716C12.0658 8.89247 12.051 8.90716 12.0366 8.92126V5.71505C12.0366 5.4568 12.0083 5.11011 11.7959 4.82966C11.5475 4.50166 11.1833 4.42571 10.8907 4.42571H8.03566C7.76202 4.41788 7.49544 4.51475 7.29052 4.69692C7.08144 4.88279 6.95302 5.14283 6.93254 5.42184L6.93087 5.44469V5.4676C6.93087 5.75203 7.04249 5.96477 7.14275 6.11155C7.18943 6.1799 7.2406 6.24371 7.27865 6.29111L7.28722 6.30179C7.32533 6.34924 7.35649 6.38806 7.38794 6.43078C7.49618 6.57782 7.62743 6.79333 7.66032 7.26004V9.63655C7.48573 9.43101 7.28575 9.15608 7.07273 8.81967C6.53479 7.97014 5.95669 6.79702 5.5293 5.53997L5.52589 5.52993L5.52213 5.52001C5.42738 5.26955 5.29713 4.97243 5.05484 4.75245C4.77998 4.50289 4.44988 4.42571 4.1169 4.42571H2.29324C1.9472 4.42571 1.58941 4.50704 1.33186 4.77841C1.07791 5.04599 1.04297 5.37238 1.04297 5.57178V5.63833L1.05698 5.7034C1.55122 7.9977 2.57122 10.1458 4.03649 11.9787C4.68382 13.0053 5.5635 13.8655 6.6047 14.4897C7.65666 15.1204 8.8434 15.4921 10.0672 15.5744L10.0881 15.5758H10.1091C10.6894 15.5758 11.1897 15.52 11.5418 15.2852C11.9932 14.9843 12.0366 14.5257 12.0366 14.2474V12.6433C12.2147 12.718 12.5824 12.9404 13.2665 13.5992C13.5632 13.896 13.7989 14.1529 13.999 14.3747C14.0362 14.4159 14.0728 14.4567 14.1088 14.4968C14.2618 14.6672 14.4045 14.826 14.5345 14.9567C14.6975 15.1206 14.8792 15.2811 15.0976 15.3965C15.3299 15.5192 15.5736 15.5758 15.8406 15.5758H17.6643C18.0025 15.5758 18.4208 15.4945 18.7047 15.1648C19.01 14.8101 18.9991 14.3628 18.8869 13.9984L18.872 13.9499L18.8494 13.9044C18.4304 13.0602 17.8776 12.2893 17.2123 11.6218C16.9862 11.3572 16.716 11.0927 16.4952 10.8765L16.4717 10.8536C16.2098 10.5971 16.0674 10.4517 16.0221 10.3836L16.0094 10.3646L15.9953 10.3465C15.9909 10.3408 15.9868 10.3355 15.983 10.3304C15.9926 10.315 16.0035 10.2979 16.0162 10.2784C17.0024 8.93558 17.8423 7.49121 18.5216 5.96989L18.538 5.93317L18.5496 5.89464C18.6261 5.63938 18.6889 5.23132 18.4365 4.87507C18.1773 4.50913 17.7502 4.42571 17.4038 4.42571H15.5986ZM12.0496 12.3971C12.0496 12.3971 12.0495 12.3978 12.0491 12.399Z" fill="white"/>
</svg>
