<svg width="20" height="20" viewBox="0 0 20 20" fill="none" xmlns="http://www.w3.org/2000/svg">
<path fill-rule="evenodd" clip-rule="evenodd" d="M10.0593 18.2174C8.6655 18.2106 7.29604 17.8537 6.07838 17.1801L1.66797 18.3327L2.8286 14.0449C2.08013 12.796 1.67956 11.3719 1.66797 9.91857C1.67259 8.28522 2.16379 6.68975 3.07972 5.33311C3.99564 3.97647 5.29532 2.91933 6.81506 2.29482C8.33481 1.67031 10.0067 1.50638 11.62 1.82366C13.2334 2.14093 14.7162 2.92524 15.8816 4.07779C17.047 5.23034 17.8429 6.6996 18.1691 8.30051C18.4953 9.90141 18.3372 11.5624 17.7146 13.0742C17.0921 14.586 16.033 15.8811 14.6708 16.7964C13.3085 17.7116 11.704 18.206 10.0593 18.2174ZM6.56765 4.06181C7.62407 3.43507 8.82885 3.09752 10.0593 3.08354L10.0288 3.08395C11.8757 3.08395 13.2787 3.7024 14.5846 4.99935C15.8906 6.2963 17.0115 8.0383 17.0115 9.87246C17.0115 11.7066 16.2779 13.4657 14.9719 14.7626C13.6659 16.0596 11.8947 16.7882 10.0477 16.7882C8.82258 16.779 7.62152 16.449 6.56584 15.8315L6.3105 15.6817L3.66426 16.3963L4.36064 13.872L4.19815 13.6069C3.55612 12.5644 3.20374 11.3715 3.17689 10.1497C3.15004 8.92792 3.44967 7.72088 4.04529 6.65149C4.64091 5.5821 5.51123 4.68855 6.56765 4.06181Z" fill="white"/>
<path d="M14.5034 12.5986C14.3514 12.8504 14.1478 13.0677 13.9059 13.2364C13.664 13.4052 13.3891 13.5217 13.099 13.5783C12.6656 13.657 12.2193 13.6293 11.7991 13.4976C11.4037 13.3748 11.0162 13.2286 10.6385 13.0596C9.20364 12.3446 7.97998 11.2723 7.08694 9.94753C6.60166 9.33373 6.30722 8.59268 6.23968 7.81519C6.23277 7.49221 6.29429 7.1714 6.42026 6.87355C6.54622 6.5757 6.73382 6.30747 6.97088 6.08626C7.04071 6.00764 7.12637 5.94444 7.22234 5.90076C7.3183 5.85708 7.42243 5.83389 7.52798 5.83268H7.85296C7.98063 5.83268 8.15473 5.83268 8.31721 6.18999C8.4797 6.54731 8.90914 7.61924 8.96717 7.72298C8.99569 7.77827 9.01056 7.83951 9.01056 7.90163C9.01056 7.96376 8.99569 8.02499 8.96717 8.08029C8.91586 8.20554 8.84539 8.32217 8.75825 8.42607C8.6538 8.55286 8.53774 8.7027 8.44489 8.79491C8.35203 8.88712 8.23597 9.00238 8.35203 9.20985C8.66783 9.73912 9.05872 10.2205 9.51267 10.6391C10.007 11.0729 10.5722 11.4198 11.184 11.6649C11.3929 11.7687 11.5206 11.7571 11.6366 11.6649C11.7527 11.5727 12.1589 11.0656 12.2982 10.8581C12.4375 10.6506 12.5767 10.6852 12.7624 10.7544C12.9481 10.8235 13.9811 11.3191 14.19 11.4229C14.3989 11.5266 14.5266 11.5727 14.5846 11.6649C14.635 11.9666 14.607 12.276 14.5034 12.564V12.5986Z" fill="white"/>
</svg>
