<svg width="28" height="28" fill="none" xmlns="http://www.w3.org/2000/svg"><path fill-rule="evenodd" clip-rule="evenodd" d="M9.332 11.666v-7h5.833a4.667 4.667 0 0 1 0 9.333h-3.5V15.7h2.042v2.334h-2.042v3.55a1.167 1.167 0 0 1-2.333 0v-3.5H8.165V15.75h1.167v-4.083Zm5.833 0h-3.5V6.999h3.5a2.333 2.333 0 0 1 0 4.667Z" fill="#333"/><path d="M13.707 18.033v-2.334a1.167 1.167 0 1 1 0 2.334ZM8.165 15.75v2.333a1.167 1.167 0 1 1 0-2.334Zm0-4.084v2.333a1.167 1.167 0 1 1 0-2.333Zm1.167 0v2.333H8.165v-2.333h1.167Z" fill="#333"/></svg>