<svg width="20" height="20" fill="none" xmlns="http://www.w3.org/2000/svg"><path d="M16.2 10.833c-.183 0-.374-.059-.557-.1a7.861 7.861 0 0 1-1.092-.325 1.667 1.667 0 0 0-2.067.833l-.183.375a10.15 10.15 0 0 1-2.217-1.667 10.149 10.149 0 0 1-1.667-2.216l.35-.234a1.667 1.667 0 0 0 .834-2.066 8.607 8.607 0 0 1-.325-1.092 6.18 6.18 0 0 1-.1-.567 2.5 2.5 0 0 0-2.5-2.075h-2.5a2.5 2.5 0 0 0-2.5 2.842 15.833 15.833 0 0 0 13.767 13.717h.316a2.5 2.5 0 0 0 2.285-1.482 2.5 2.5 0 0 0 .215-1.027v-2.5a2.5 2.5 0 0 0-2.058-2.416Zm.418 5a.833.833 0 0 1-.603.801.884.884 0 0 1-.364.032A14.167 14.167 0 0 1 3.392 4.35a.908.908 0 0 1 .209-.683.833.833 0 0 1 .625-.283h2.5a.833.833 0 0 1 .833.658c.033.228.075.453.125.675.096.44.225.871.383 1.292l-1.166.541a.833.833 0 0 0-.409 1.109 12.075 12.075 0 0 0 5.834 5.833c.203.084.43.084.633 0a.833.833 0 0 0 .475-.433l.517-1.167c.43.154.87.282 1.316.383.223.05.448.092.676.126a.833.833 0 0 1 .658.833l.017 2.6Z" fill="#fff"/></svg>