<svg width="20" height="20" fill="none" xmlns="http://www.w3.org/2000/svg"><path fill-rule="evenodd" clip-rule="evenodd" d="M15.537 5.674a.16.16 0 0 0-.162.107l-.006.016-.007.016a15.626 15.626 0 0 1-2.334 3.88l-.02.024-.021.022c-.392.392-.754.743-1.289.743-.649 0-.911-.632-.911-1.146V5.675H8.383l.01.015c.236.32.468.765.515 1.51l.001.02v2.703c0 .285-.017.612-.16.869a.845.845 0 0 1-.398.367.991.991 0 0 1-.405.079 1.13 1.13 0 0 1-.613-.206 2.647 2.647 0 0 1-.443-.382 7.651 7.651 0 0 1-.874-1.162 17.22 17.22 0 0 1-1.668-3.535 1.7 1.7 0 0 0-.096-.218.374.374 0 0 0-.033-.05.467.467 0 0 0-.103-.01H2.332a13.914 13.914 0 0 0 2.702 5.55l.023.029.02.031a6.493 6.493 0 0 0 5.053 3.04c.259 0 .439-.015.562-.037.04-.007.071-.015.095-.021v-1.661c0-.145.006-.294.033-.433.026-.14.08-.312.204-.466.272-.34.675-.351.87-.351.537 0 1.15.293 2.244 1.347l.008.008c.32.32.573.596.781.826l.123.137c.15.167.265.295.37.401.13.131.208.188.262.216.04.021.08.035.159.035h1.82a7.485 7.485 0 0 0-1.35-1.838l-.018-.018-.018-.02c-.19-.226-.433-.464-.674-.7l-.004-.003-.032-.032c-.197-.193-.435-.426-.569-.617-.168-.22-.32-.498-.293-.842.024-.29.18-.528.264-.657l.011-.018.01-.015.01-.014a22.133 22.133 0 0 0 2.285-3.876h-1.725l-.021-.002Zm.062-1.248a1.41 1.41 0 0 0-1.396.918 14.382 14.382 0 0 1-2.122 3.533l-.044.044V5.715c0-.258-.029-.605-.241-.885-.248-.328-.613-.404-.905-.404H8.036a1.075 1.075 0 0 0-1.103.996l-.002.023v.023c0 .284.111.497.212.644.046.068.098.132.136.18l.008.01c.038.047.07.086.1.129.11.147.24.362.273.829v2.377a7.404 7.404 0 0 1-.587-.817c-.538-.85-1.116-2.023-1.544-3.28l-.003-.01-.004-.01c-.095-.25-.225-.548-.467-.768-.275-.25-.605-.326-.938-.326H2.293c-.346 0-.704.081-.961.352-.254.268-.289.594-.289.794v.066l.014.065a15.164 15.164 0 0 0 2.98 6.276 7.743 7.743 0 0 0 6.03 3.595l.021.002h.021c.58 0 1.08-.056 1.433-.29.451-.302.495-.76.495-1.039v-1.604c.178.075.545.297 1.23.956.296.297.532.554.732.776l.11.122c.153.17.296.329.425.46.163.164.345.324.564.44.232.122.476.179.743.179h1.823c.338 0 .757-.082 1.04-.411.306-.355.295-.802.183-1.167l-.015-.048-.023-.046a8.733 8.733 0 0 0-1.637-2.282c-.226-.265-.496-.53-.717-.745l-.023-.023c-.262-.257-.405-.402-.45-.47l-.013-.02-.014-.018-.012-.016.033-.052a23.388 23.388 0 0 0 2.506-4.308l.016-.037.012-.038c.076-.256.139-.664-.114-1.02-.259-.366-.686-.45-1.032-.45h-1.805Zm-3.55 7.971v.002Z" fill="#fff"/></svg>