<svg width="16" height="12" fill="none" xmlns="http://www.w3.org/2000/svg"><path d="M8.328 2.607a8.64 8.64 0 0 1 5.953 2.379c.12.118.314.116.433-.004l1.156-1.166a.322.322 0 0 0-.002-.456 10.897 10.897 0 0 0-15.08 0 .322.322 0 0 0-.003.456L1.94 4.982c.119.12.312.122.433.004a8.64 8.64 0 0 1 5.954-2.379Zm0 3.796c1.217 0 2.392.453 3.294 1.27a.31.31 0 0 0 .433-.006L13.21 6.5a.322.322 0 0 0-.005-.459 7.16 7.16 0 0 0-9.752 0 .322.322 0 0 0-.004.46l1.154 1.166a.31.31 0 0 0 .433.006 4.907 4.907 0 0 1 3.292-1.27Zm2.219 2.784a.314.314 0 0 0-.01-.457 3.422 3.422 0 0 0-4.419 0 .314.314 0 0 0-.01.457l1.998 2.016a.312.312 0 0 0 .444 0l1.997-2.016Z" fill="#1A1A1A"/></svg>